<svg version="1" xmlns="http://www.w3.org/2000/svg" width="682.667" height="682.667" viewBox="0 0 512.000000 512.000000"><path d="M368.7 101.2c-31.3 31.5-57.3 58.3-57.8 59.5-1.1 2.8.7 8 3.1 9.3 1 .6 3.2 1 4.8 1 2.6 0 9.3-6.3 51.3-48.6 26.6-26.7 50.3-50.5 52.5-52.8 2.3-2.2 5.2-5.1 6.6-6.3l2.4-2.3 9.4 2.6c9.3 2.5 9.7 2.7 16.8 9.7 6.1 6 7.5 8.1 8.8 12.7.9 3 2.2 7.5 3 9.8l1.4 4.4-55 55c-51.6 51.5-55 55.2-55 58.5 0 1.9.7 4.1 1.5 4.9 2 2 6.5 3.3 8.8 2.5 2.9-1.1 115.7-114.2 116.3-116.7.3-1.3-1.3-8.8-3.8-17.1l-4.3-14.8-9.2-9.6c-9.5-9.8-11-10.9-17.8-12.8-2.2-.6-8-2.2-13-3.6-4.9-1.4-10.1-2.5-11.5-2.5-2 0-13.6 11.1-59.3 57.2z"/><path d="M443.7 78.4C439.5 80.2 335 184.5 335 186.9c0 5.8 5.7 10.4 10.5 8.5 3.4-1.3 107.3-104.4 108.4-107.5 2.1-5.9-4.4-12-10.2-9.5z"/><path d="M154.5 112c-55.2.5-56.1.5-61.5 2.7-15.3 6.3-25 16.6-28 29.7-1.1 4.8-1.5 211.2-.5 217.1 1.7 9.2 6.9 18.3 15 26.1 5.7 5.4 15.7 10.9 21.5 11.8 1.9.3 38.1.6 80.5.6h77l6 5.1c3.3 2.8 7.6 6.5 9.5 8.3 2 1.7 6.5 5.6 10 8.6 3.6 3 6.7 5.7 7 6 .3.3 3.4 3 7 6s7 5.9 7.6 6.5c.6.5 3.5 3 6.4 5.5 10.6 8.9 20.5 17.5 20.8 18.1.6 1.3 6.3-.5 8.7-2.7l2.5-2.3v-59l32.8-.1c18 0 34.3-.3 36.2-.6 9.5-1.6 21.4-10.6 28.2-21.5 7-11 6.8-7.2 6.8-106.9v-89.7l-2.4-2.6c-3.2-3.5-7.4-3.5-11-.2l-2.6 2.4v132.8c0 45.1-.1 47.5-2 52.7-2.5 6.6-8.2 12.9-14.1 15.6-4.1 1.8-6.7 2-43.5 2h-39.1l-2.7 2.5-2.6 2.4v49.3l-4.7-3.8c-2.7-2.1-5-4.1-5.3-4.4-.3-.3-10.2-8.9-22-19-11.8-10.2-22.4-19.3-23.5-20.3-1.1-1.1-3.4-3-5.1-4.3l-3.1-2.4h-80.1c-71.5 0-80.6-.2-85.1-1.7-6.5-2.1-11.9-6.7-15.6-13.4l-3-5.4-.3-108c-.3-121.6-.8-113.1 7.4-120.3 8.5-7.6 1.8-7.2 124.7-7.2 98.6 0 110-.2 112.2-1.6 3-1.9 3.9-4.5 3-8.5-1.3-6 .2-5.9-61.1-6.2-30.7-.1-81.1 0-111.9.3z"/><path d="M298.4 174.1c-2.8 1-5.2 4-5.8 7.1-.2 1.5-.7 3.1-1 3.6-.3.5-.7 1.9-1 3.3-.3 1.3-1 4.2-1.6 6.4-.6 2.2-1.2 4.7-1.4 5.5-.5 1.7-4.5 16.9-5 18.5-1.6 5.5-2.6 9.4-3 11.5-.3 1.4-1.1 4.6-1.7 7.1-1.5 5.8-.7 8.9 3.2 13.4 5.2 5.9 6.9 5.8 36.9-2 7.4-1.9 14.4-3.7 15.5-3.9 10.2-2.2 20-5.2 22-6.8 3.6-2.8 3.5-8.9-.2-11.8-2.7-2.1-5.2-2.3-11.8-.6-1.1.3-12.6 3.2-25.5 6.5s-23.5 5.9-23.6 5.8c-.2-.2 3.8-15.4 8.1-31.2 1.5-5.5 3-11.2 3.2-12.7.3-1.5.8-2.6 1.2-2.4.3.2.6-.8.7-2.2 0-1.5.4-4.2.8-6 1.2-5.9-4.5-11.2-10-9.1zM198.7 192l-50.9.5-2 2.5c-2.5 3.1-1.8 8.7 1.4 11.2 2.1 1.6 6.6 1.8 61.1 1.8h58.8l2.5-2.7c2.1-2.2 2.5-3.5 2-6.2-.9-5.6-2.6-6.5-12.9-7.1-5.1-.3-32.1-.3-60 0zM146.5 234.6c-1.4 1.5-2.5 3.9-2.5 5.3 0 3.2 2.5 7.1 4.6 7.1.8 0 1.3.3 1.1.7-.3.5 17.8.7 40.1.6 22.4-.2 47-.3 54.8-.3 13.7 0 14.2-.1 16.9-2.6 2.3-2.2 2.7-3.1 2.2-6.2-1.3-7.6 1.7-7.2-59.9-7.2h-54.9l-2.4 2.6zM238.7 272l-90.8.5-2 2.5c-2.5 3.1-1.9 8.5 1.2 11.4 2.2 2.1 2.3 2.1 108.6 1.9 96.2-.3 106.6-.4 108.8-1.9 1.4-.9 2.8-2.7 3.1-4 .7-2.6-1.1-8-3-9.2-2.1-1.4-35.7-1.7-125.9-1.2zM199.4 311.8l-50.1.2-2.8 2.6c-2.3 2.2-2.7 3.1-2.2 6.2 1.3 7.6-2.3 7.2 65.1 7.2 153.1.1 152.5.1 155.1-1.6 3-1.9 3.9-4.5 3-8.5-1.3-6 .2-5.8-61.6-6.1-31-.2-79-.2-106.5 0z"/></svg>